<svg xmlns="http://www.w3.org/2000/svg" width="256" height="256" viewBox="0 0 256 256" fill="none" role="img" aria-labelledby="title desc">
  <title id="title">ODOMO - Automatizacion de flujos</title>
  <desc id="desc">Rutas conectadas que expresan procesos automatizados y eficiencia operativa.</desc>
  <path fill="#15201A" d="M55 74c0-10 8-18 18-18h110c10 0 18 8 18 18v108c0 10-8 18-18 18H73c-10 0-18-8-18-18V74Z"/>
  <path stroke="#F5F7F2" stroke-width="9" stroke-linecap="round" stroke-linejoin="round" d="M74 87h53c18 0 32 14 32 32s-14 32-32 32H94"/>
  <path stroke="#00D6A3" stroke-width="9" stroke-linecap="round" stroke-linejoin="round" d="M182 87h-22c-18 0-32 14-32 32s14 32 32 32h22"/>
  <path stroke="#B6FF3B" stroke-width="5" stroke-linecap="round" stroke-linejoin="round" d="M92 170h72"/>
  <path stroke="#B6FF3B" stroke-width="5" stroke-linecap="round" stroke-linejoin="round" d="M151 157l15 13-15 13"/>
  <circle fill="#B6FF3B" cx="74" cy="87" r="7"/>
  <circle fill="#00D6A3" cx="182" cy="87" r="7"/>
  <circle fill="#F5F7F2" cx="94" cy="151" r="7"/>
  <circle fill="#F5F7F2" cx="182" cy="151" r="7"/>
</svg>
