<svg xmlns="http://www.w3.org/2000/svg" width="256" height="256" viewBox="0 0 256 256" fill="none" role="img" aria-labelledby="title desc">
  <title id="title">ODOMO - Operaciones como sistema</title>
  <desc id="desc">Capas y carriles conectados para representar procesos de negocio ordenados.</desc>
  <path fill="#15201A" d="M54 69c0-9 7-16 16-16h116c9 0 16 7 16 16v118c0 9-7 16-16 16H70c-9 0-16-7-16-16V69Z"/>
  <path stroke="#F5F7F2" stroke-width="9" stroke-linecap="round" stroke-linejoin="round" d="M77 85h102M77 119h102M77 153h102"/>
  <path stroke="#00D6A3" stroke-width="9" stroke-linecap="round" stroke-linejoin="round" d="M98 85v68M128 85v68M158 85v68"/>
  <path stroke="#B6FF3B" stroke-width="5" stroke-linecap="round" stroke-linejoin="round" d="M83 183h90"/>
  <path stroke="#B6FF3B" stroke-width="5" stroke-linecap="round" stroke-linejoin="round" d="M159 171l14 12-14 12"/>
  <circle fill="#B6FF3B" cx="98" cy="85" r="5"/>
  <circle fill="#B6FF3B" cx="128" cy="119" r="5"/>
  <circle fill="#B6FF3B" cx="158" cy="153" r="5"/>
</svg>
