<svg xmlns="http://www.w3.org/2000/svg" width="256" height="256" viewBox="0 0 256 256" fill="none" role="img" aria-labelledby="title desc">
  <title id="title">ODOMO - Control y seguridad</title>
  <desc id="desc">Escudo de control para soluciones confiables, gobierno y proteccion operativa.</desc>
  <path fill="#15201A" d="M128 48l66 24v48c0 45-27 76-66 92-39-16-66-47-66-92V72l66-24Z"/>
  <path stroke="#F5F7F2" stroke-width="5" stroke-linecap="round" stroke-linejoin="round" d="M128 48l66 24v48c0 45-27 76-66 92-39-16-66-47-66-92V72l66-24Z"/>
  <path stroke="#B6FF3B" stroke-width="9" stroke-linecap="round" stroke-linejoin="round" d="M91 126l26 26 51-57"/>
  <path stroke="#00D6A3" stroke-width="5" stroke-linecap="round" stroke-linejoin="round" d="M95 83h66M95 177h66"/>
  <circle fill="#00D6A3" cx="95" cy="83" r="5"/>
  <circle fill="#00D6A3" cx="161" cy="83" r="5"/>
  <circle fill="#B6FF3B" cx="117" cy="152" r="6"/>
</svg>
